<svg width="193" height="19" viewBox="0 0 193 19" fill="none" xmlns="http://www.w3.org/2000/svg">
<path d="M0.865234 0.908203H6.96875C8.48568 0.908203 9.70964 1.36393 10.6406 2.27539C11.5781 3.18034 12.0469 4.38802 12.0469 5.89844C12.0469 7.39583 11.5586 8.60026 10.582 9.51172C9.60547 10.4167 8.32943 10.8691 6.75391 10.8691H4.44922V15H0.865234V0.908203ZM4.44922 3.65234V8.17383H6.00195C6.77018 8.17383 7.36589 7.97852 7.78906 7.58789C8.21224 7.19727 8.42383 6.63737 8.42383 5.9082C8.42383 5.17904 8.21224 4.6224 7.78906 4.23828C7.3724 3.84766 6.7832 3.65234 6.02148 3.65234H4.44922ZM13.4043 15V4.36523H16.7734V6.37695H16.8418C17.2324 4.93164 18.0658 4.20898 19.3418 4.20898C19.6868 4.20898 19.9798 4.25456 20.2207 4.3457V7.29492C19.8952 7.16471 19.5273 7.09961 19.1172 7.09961C18.388 7.09961 17.8314 7.29818 17.4473 7.69531C17.0632 8.09245 16.8711 8.66211 16.8711 9.4043V15H13.4043ZM30.1035 13.7891C29.1335 14.7656 27.8053 15.2539 26.1191 15.2539C24.4329 15.2539 23.1048 14.7656 22.1348 13.7891C21.1647 12.806 20.6797 11.4355 20.6797 9.67773C20.6797 7.95247 21.1712 6.59505 22.1543 5.60547C23.1374 4.60938 24.459 4.11133 26.1191 4.11133C27.7923 4.11133 29.1172 4.60612 30.0938 5.5957C31.0703 6.58529 31.5586 7.94596 31.5586 9.67773C31.5586 11.4421 31.0736 12.8125 30.1035 13.7891ZM24.7031 11.9238C25.0482 12.4512 25.5202 12.7148 26.1191 12.7148C26.7181 12.7148 27.1901 12.4512 27.5352 11.9238C27.8802 11.3965 28.0527 10.651 28.0527 9.6875C28.0527 8.73698 27.877 7.99479 27.5254 7.46094C27.1803 6.92057 26.7116 6.65039 26.1191 6.65039C25.5267 6.65039 25.0579 6.92057 24.7129 7.46094C24.3678 7.99479 24.1953 8.73698 24.1953 9.6875C24.1953 10.651 24.3646 11.3965 24.7031 11.9238ZM38.1113 12.3535C38.7363 12.3535 39.2246 12.1224 39.5762 11.6602C39.9342 11.1914 40.1133 10.5306 40.1133 9.67773C40.1133 8.83138 39.9342 8.16081 39.5762 7.66602C39.2181 7.16471 38.7298 6.91406 38.1113 6.91406C37.4928 6.91406 37.0046 7.16146 36.6465 7.65625C36.2949 8.15104 36.1191 8.82487 36.1191 9.67773C36.1191 10.5306 36.2917 11.1914 36.6367 11.6602C36.9883 12.1224 37.4798 12.3535 38.1113 12.3535ZM38.0039 19.0039C36.513 19.0039 35.3053 18.6979 34.3809 18.0859C33.4629 17.474 32.9551 16.6764 32.8574 15.6934H36.207C36.2917 16.0059 36.5033 16.2565 36.8418 16.4453C37.1803 16.6406 37.5938 16.7383 38.082 16.7383C38.7331 16.7383 39.2311 16.5788 39.5762 16.2598C39.9277 15.9408 40.1035 15.5111 40.1035 14.9707V13.0176H40.0352C39.8203 13.584 39.4199 14.043 38.834 14.3945C38.2546 14.7396 37.5775 14.9121 36.8027 14.9121C35.5137 14.9121 34.485 14.4466 33.7168 13.5156C32.9551 12.5846 32.5742 11.2956 32.5742 9.64844C32.5742 7.94922 32.9518 6.61784 33.707 5.6543C34.4688 4.69076 35.5169 4.20898 36.8516 4.20898C37.6068 4.20898 38.2676 4.39779 38.834 4.77539C39.4004 5.14648 39.8073 5.63802 40.0547 6.25H40.123V4.36523H43.5605V14.8828C43.5605 16.1393 43.0495 17.1387 42.0273 17.8809C41.0117 18.6296 39.6706 19.0039 38.0039 19.0039ZM45.2402 15V4.36523H48.6094V6.37695H48.6777C49.0684 4.93164 49.9017 4.20898 51.1777 4.20898C51.5228 4.20898 51.8158 4.25456 52.0566 4.3457V7.29492C51.7311 7.16471 51.3633 7.09961 50.9531 7.09961C50.224 7.09961 49.6673 7.29818 49.2832 7.69531C48.8991 8.09245 48.707 8.66211 48.707 9.4043V15H45.2402ZM57.8672 6.57227C57.3398 6.57227 56.8939 6.7513 56.5293 7.10938C56.1712 7.46094 55.9694 7.91341 55.9238 8.4668H59.791C59.7585 7.90039 59.5664 7.44466 59.2148 7.09961C58.8633 6.74805 58.4141 6.57227 57.8672 6.57227ZM59.8691 11.6406H62.9941C62.8249 12.7409 62.2845 13.6198 61.373 14.2773C60.4616 14.9284 59.3125 15.2539 57.9258 15.2539C56.2331 15.2539 54.9082 14.7656 53.9512 13.7891C52.9941 12.806 52.5156 11.4551 52.5156 9.73633C52.5156 8.01758 52.9909 6.65039 53.9414 5.63477C54.8984 4.61914 56.1875 4.11133 57.8086 4.11133C59.4102 4.11133 60.6829 4.59635 61.627 5.56641C62.5775 6.53646 63.0527 7.83529 63.0527 9.46289V10.4395H55.875V10.6543C55.875 11.2923 56.0671 11.8099 56.4512 12.207C56.8418 12.6042 57.3496 12.8027 57.9746 12.8027C58.4368 12.8027 58.8372 12.6986 59.1758 12.4902C59.5143 12.2819 59.7454 11.9987 59.8691 11.6406ZM64.2246 7.58789C64.2246 6.52018 64.6478 5.67383 65.4941 5.04883C66.347 4.42383 67.5059 4.11133 68.9707 4.11133C70.416 4.11133 71.5618 4.43359 72.4082 5.07812C73.2546 5.71615 73.6842 6.58529 73.6973 7.68555H70.5332C70.5202 7.30143 70.3704 6.9987 70.084 6.77734C69.7975 6.55599 69.4167 6.44531 68.9414 6.44531C68.5182 6.44531 68.1797 6.52995 67.9258 6.69922C67.6719 6.86849 67.5449 7.08984 67.5449 7.36328C67.5449 7.79297 67.9421 8.08919 68.7363 8.25195L70.9629 8.70117C72.0241 8.92904 72.7923 9.27409 73.2676 9.73633C73.7493 10.1921 73.9902 10.8236 73.9902 11.6309C73.9902 12.7311 73.5345 13.61 72.623 14.2676C71.7116 14.9251 70.5104 15.2539 69.0195 15.2539C67.4896 15.2539 66.2819 14.9316 65.3965 14.2871C64.5176 13.6426 64.0423 12.7669 63.9707 11.6602H67.3301C67.3822 12.0573 67.5579 12.3665 67.8574 12.5879C68.1634 12.8092 68.5703 12.9199 69.0781 12.9199C69.5404 12.9199 69.9017 12.8418 70.1621 12.6855C70.429 12.5228 70.5625 12.3014 70.5625 12.0215C70.5625 11.8066 70.4746 11.6341 70.2988 11.5039C70.123 11.3672 69.8268 11.2565 69.4102 11.1719L67.3984 10.752C66.3568 10.5306 65.5658 10.153 65.0254 9.61914C64.4915 9.07878 64.2246 8.40169 64.2246 7.58789ZM75.0449 7.58789C75.0449 6.52018 75.4681 5.67383 76.3145 5.04883C77.1673 4.42383 78.3262 4.11133 79.791 4.11133C81.2363 4.11133 82.3822 4.43359 83.2285 5.07812C84.0749 5.71615 84.5046 6.58529 84.5176 7.68555H81.3535C81.3405 7.30143 81.1908 6.9987 80.9043 6.77734C80.6178 6.55599 80.237 6.44531 79.7617 6.44531C79.3385 6.44531 79 6.52995 78.7461 6.69922C78.4922 6.86849 78.3652 7.08984 78.3652 7.36328C78.3652 7.79297 78.7624 8.08919 79.5566 8.25195L81.7832 8.70117C82.8444 8.92904 83.6126 9.27409 84.0879 9.73633C84.5697 10.1921 84.8105 10.8236 84.8105 11.6309C84.8105 12.7311 84.3548 13.61 83.4434 14.2676C82.5319 14.9251 81.3307 15.2539 79.8398 15.2539C78.3099 15.2539 77.1022 14.9316 76.2168 14.2871C75.3379 13.6426 74.8626 12.7669 74.791 11.6602H78.1504C78.2025 12.0573 78.3783 12.3665 78.6777 12.5879C78.9837 12.8092 79.3906 12.9199 79.8984 12.9199C80.3607 12.9199 80.722 12.8418 80.9824 12.6855C81.2493 12.5228 81.3828 12.3014 81.3828 12.0215C81.3828 11.8066 81.2949 11.6341 81.1191 11.5039C80.9434 11.3672 80.6471 11.2565 80.2305 11.1719L78.2188 10.752C77.1771 10.5306 76.3861 10.153 75.8457 9.61914C75.3118 9.07878 75.0449 8.40169 75.0449 7.58789ZM86.0703 15V4.36523H89.5273V15H86.0703ZM89.0586 3.01758C88.7201 3.3431 88.3001 3.50586 87.7988 3.50586C87.2975 3.50586 86.8743 3.3431 86.5293 3.01758C86.1908 2.69206 86.0215 2.28841 86.0215 1.80664C86.0215 1.33138 86.1908 0.93099 86.5293 0.605469C86.8743 0.279948 87.2975 0.117188 87.7988 0.117188C88.3001 0.117188 88.7201 0.279948 89.0586 0.605469C89.3971 0.924479 89.5664 1.32487 89.5664 1.80664C89.5664 2.28841 89.3971 2.69206 89.0586 3.01758ZM100.318 13.7891C99.3483 14.7656 98.0202 15.2539 96.334 15.2539C94.6478 15.2539 93.3197 14.7656 92.3496 13.7891C91.3796 12.806 90.8945 11.4355 90.8945 9.67773C90.8945 7.95247 91.3861 6.59505 92.3691 5.60547C93.3522 4.60938 94.6738 4.11133 96.334 4.11133C98.0072 4.11133 99.332 4.60612 100.309 5.5957C101.285 6.58529 101.773 7.94596 101.773 9.67773C101.773 11.4421 101.288 12.8125 100.318 13.7891ZM94.918 11.9238C95.263 12.4512 95.735 12.7148 96.334 12.7148C96.9329 12.7148 97.4049 12.4512 97.75 11.9238C98.0951 11.3965 98.2676 10.651 98.2676 9.6875C98.2676 8.73698 98.0918 7.99479 97.7402 7.46094C97.3952 6.92057 96.9264 6.65039 96.334 6.65039C95.7415 6.65039 95.2728 6.92057 94.9277 7.46094C94.5827 7.99479 94.4102 8.73698 94.4102 9.6875C94.4102 10.651 94.5794 11.3965 94.918 11.9238ZM103.111 15V4.36523H106.48V6.36719H106.549C106.822 5.65104 107.236 5.10417 107.789 4.72656C108.349 4.34896 109.033 4.16016 109.84 4.16016C111.018 4.16016 111.926 4.51172 112.564 5.21484C113.209 5.91797 113.531 6.9043 113.531 8.17383V15H110.074V8.91602C110.074 8.30404 109.928 7.82878 109.635 7.49023C109.348 7.15169 108.925 6.98242 108.365 6.98242C107.818 6.98242 107.382 7.16797 107.057 7.53906C106.738 7.91016 106.578 8.39193 106.578 8.98438V15H103.111ZM114.889 11.2402H115.66C115.719 12.1973 116.155 12.9785 116.969 13.584C117.783 14.1895 118.801 14.4922 120.025 14.4922C121.217 14.4922 122.19 14.1927 122.945 13.5938C123.707 12.9883 124.088 12.2233 124.088 11.2988C124.088 10.5632 123.824 9.96745 123.297 9.51172C122.77 9.05599 121.913 8.67839 120.729 8.37891L119.059 7.96875C117.75 7.63672 116.79 7.19401 116.178 6.64062C115.572 6.08073 115.27 5.36133 115.27 4.48242C115.27 3.39518 115.715 2.49349 116.607 1.77734C117.499 1.0612 118.593 0.703125 119.889 0.703125C121.21 0.703125 122.317 1.04818 123.209 1.73828C124.101 2.42839 124.57 3.29427 124.615 4.33594H123.844C123.792 3.48958 123.391 2.79297 122.643 2.24609C121.9 1.69271 120.976 1.41602 119.869 1.41602C118.795 1.41602 117.89 1.70573 117.154 2.28516C116.425 2.85807 116.061 3.58398 116.061 4.46289C116.061 5.15951 116.324 5.72591 116.852 6.16211C117.379 6.59831 118.215 6.95964 119.361 7.24609L120.934 7.64648C122.307 7.98503 123.307 8.4375 123.932 9.00391C124.563 9.5638 124.879 10.3092 124.879 11.2402C124.879 12.4121 124.426 13.3659 123.521 14.1016C122.617 14.8372 121.432 15.2051 119.967 15.2051C118.521 15.2051 117.327 14.8372 116.383 14.1016C115.445 13.3659 114.947 12.4121 114.889 11.2402ZM133.863 13.7402C133.036 14.6842 131.943 15.1562 130.582 15.1562C129.221 15.1562 128.128 14.6842 127.301 13.7402C126.474 12.7962 126.061 11.5234 126.061 9.92188C126.061 8.32031 126.474 7.04753 127.301 6.10352C128.128 5.15951 129.221 4.6875 130.582 4.6875C131.943 4.6875 133.036 5.15951 133.863 6.10352C134.697 7.04753 135.113 8.32031 135.113 9.92188C135.113 11.5234 134.697 12.7962 133.863 13.7402ZM127.848 13.252C128.531 14.0658 129.443 14.4727 130.582 14.4727C131.721 14.4727 132.633 14.0625 133.316 13.2422C134.007 12.4219 134.352 11.3151 134.352 9.92188C134.352 8.52214 134.007 7.41536 133.316 6.60156C132.633 5.78125 131.721 5.37109 130.582 5.37109C129.443 5.37109 128.531 5.78125 127.848 6.60156C127.164 7.41536 126.822 8.52214 126.822 9.92188C126.822 11.3216 127.164 12.4316 127.848 13.252ZM137.35 15V5.49805H135.934V4.84375H137.35V3.34961C137.35 1.74154 138.131 0.9375 139.693 0.9375C140.019 0.9375 140.292 0.966797 140.514 1.02539V1.66992C140.286 1.61784 140.038 1.5918 139.771 1.5918C138.665 1.5918 138.111 2.19401 138.111 3.39844V4.84375H140.426V5.49805H138.111V15H137.35ZM142.701 2.17773H143.453V4.84375H145.494V5.49805H143.453V12.666C143.453 13.265 143.57 13.6947 143.805 13.9551C144.039 14.2155 144.413 14.3457 144.928 14.3457C144.947 14.3457 145.064 14.3457 145.279 14.3457C145.501 14.3392 145.618 14.3359 145.631 14.3359V15C145.54 15.013 145.27 15.0195 144.82 15.0195C144.072 15.0195 143.531 14.8405 143.199 14.4824C142.867 14.1178 142.701 13.5189 142.701 12.6855V5.49805H141.188V4.84375H142.701V2.17773ZM159.684 4.84375L156.725 15H155.846L153.014 5.82031H152.984L150.172 15H149.273L146.324 4.84375H147.115L149.723 14.1602H149.742L152.574 4.84375H153.434L156.256 14.1602H156.285L158.883 4.84375H159.684ZM168.18 13.7402C167.353 14.6842 166.259 15.1562 164.898 15.1562C163.538 15.1562 162.444 14.6842 161.617 13.7402C160.79 12.7962 160.377 11.5234 160.377 9.92188C160.377 8.32031 160.79 7.04753 161.617 6.10352C162.444 5.15951 163.538 4.6875 164.898 4.6875C166.259 4.6875 167.353 5.15951 168.18 6.10352C169.013 7.04753 169.43 8.32031 169.43 9.92188C169.43 11.5234 169.013 12.7962 168.18 13.7402ZM162.164 13.252C162.848 14.0658 163.759 14.4727 164.898 14.4727C166.038 14.4727 166.949 14.0625 167.633 13.2422C168.323 12.4219 168.668 11.3151 168.668 9.92188C168.668 8.52214 168.323 7.41536 167.633 6.60156C166.949 5.78125 166.038 5.37109 164.898 5.37109C163.759 5.37109 162.848 5.78125 162.164 6.60156C161.48 7.41536 161.139 8.52214 161.139 9.92188C161.139 11.3216 161.48 12.4316 162.164 13.252ZM171.178 15V4.84375H171.891V6.8457H171.91C172.118 6.14909 172.457 5.61523 172.926 5.24414C173.395 4.87305 173.964 4.6875 174.635 4.6875C175.006 4.6875 175.322 4.74284 175.582 4.85352V5.61523C175.309 5.47852 174.957 5.41016 174.527 5.41016C173.74 5.41016 173.111 5.71289 172.643 6.31836C172.174 6.92383 171.939 7.70833 171.939 8.67188V15H171.178ZM177.838 10.0488L183.551 4.84375H184.537L179.781 9.21875L184.586 15H183.658L179.205 9.6875L177.828 10.918V15H177.076V0.908203H177.828V10.0488H177.838ZM185.357 7.44141C185.357 6.64062 185.683 5.98307 186.334 5.46875C186.985 4.94792 187.815 4.6875 188.824 4.6875C189.853 4.6875 190.693 4.96419 191.344 5.51758C192.001 6.06445 192.376 6.8099 192.467 7.75391H191.734C191.63 6.9987 191.318 6.40951 190.797 5.98633C190.283 5.55664 189.622 5.3418 188.814 5.3418C188.027 5.3418 187.376 5.53711 186.861 5.92773C186.354 6.31836 186.1 6.81315 186.1 7.41211C186.1 7.9069 186.282 8.30729 186.646 8.61328C187.011 8.91276 187.6 9.1569 188.414 9.3457L189.82 9.67773C190.829 9.91862 191.549 10.2441 191.979 10.6543C192.415 11.0579 192.633 11.6146 192.633 12.3242C192.633 13.1576 192.285 13.8379 191.588 14.3652C190.891 14.8926 189.996 15.1562 188.902 15.1562C187.841 15.1562 186.949 14.8763 186.227 14.3164C185.504 13.75 185.104 13.0241 185.025 12.1387H185.777C185.868 12.8418 186.204 13.4115 186.783 13.8477C187.363 14.2839 188.076 14.502 188.922 14.502C189.788 14.502 190.494 14.3034 191.041 13.9062C191.594 13.5091 191.871 12.998 191.871 12.373C191.871 11.8392 191.695 11.416 191.344 11.1035C190.999 10.791 190.416 10.5371 189.596 10.3418L188.131 10C187.18 9.77865 186.48 9.45964 186.031 9.04297C185.582 8.6263 185.357 8.09245 185.357 7.44141Z" fill="white"/>
</svg>
